# xmcd
#
# Track frame offsets: 
#        183
#        14283
#        29258
#        47093
#        68915
#        93570
#        109120
#        124405
#        146005
#        161020
#        178020
#        196785
#
# Disc length: 2814 seconds
#
# Revision: 0
# Processed by: cddbd v1.5.1PL2 Copyright (c) Steve Scherf et al.
# Submitted via: ExactAudioCopy v0.95b3
#
DISCID=a60afc0c
DTITLE=Rhythm Sheiks - Migration of the Groove
DYEAR=1993
DGENRE=R&B
TTITLE0=Avalon
TTITLE1=Lorita
TTITLE2=Cut The Devil Loose
TTITLE3=Perfect Strangers
TTITLE4=Pressure Cooker
TTITLE5=After Hours Drinkin'
TTITLE6=Taters
TTITLE7=Here To Stay
TTITLE8=Born To Jump
TTITLE9=My Brand Of The Blues
TTITLE10=House Of Cards
TTITLE11=River City
EXTD=
EXTT0=
EXTT1=
EXTT2=
EXTT3=
EXTT4=
EXTT5=
EXTT6=
EXTT7=
EXTT8=
EXTT9=
EXTT10=
EXTT11=
PLAYORDER=
